<?xml version="1.0" encoding="UTF-8" standalone="no"?><svg xmlns="http://www.w3.org/2000/svg" xmlns:xlink="http://www.w3.org/1999/xlink" contentScriptType="application/ecmascript" contentStyleType="text/css" height="362px" preserveAspectRatio="none" style="width:660px;height:362px;background:#FFFFFF;" version="1.1" viewBox="0 0 660 362" width="660px" zoomAndPan="magnify"><defs><filter height="300%" id="f1vq33lmt020uq" width="300%" x="-1" y="-1"><feGaussianBlur result="blurOut" stdDeviation="2.0"/><feColorMatrix in="blurOut" result="blurOut2" type="matrix" values="0 0 0 0 0 0 0 0 0 0 0 0 0 0 0 0 0 0 .4 0"/><feOffset dx="4.0" dy="4.0" in="blurOut2" result="blurOut3"/><feBlend in="SourceGraphic" in2="blurOut3" mode="normal"/></filter></defs><g><!--MD5=[0917033a0ce4781dc6fb46427d58fde9]
cluster Nyandis--><rect fill="#FFFFFF" filter="url(#f1vq33lmt020uq)" height="229" style="stroke:#000000;stroke-width:1.5;" width="589" x="7" y="121"/><path d="M75,121 L75,130.4883 L65,140.4883 L7,140.4883 " fill="none" style="stroke:#000000;stroke-width:1.5;"/><text fill="#000000" font-family="sans-serif" font-size="14" font-weight="bold" lengthAdjust="spacing" textLength="58" x="10" y="135.5352">Nyandis</text><ellipse cx="449.8909" cy="170.659" fill="#FEFECE" filter="url(#f1vq33lmt020uq)" rx="41.8909" ry="14.659" style="stroke:#A80036;stroke-width:1.5;"/><text fill="#000000" font-family="sans-serif" font-size="14" lengthAdjust="spacing" textLength="43" x="428.3909" y="173.95">Server</text><!--MD5=[7d032ca92aca6f19a06c22e978a059cd]
entity InstructionQueue--><path d="M445.5,298 L574.5,298 C579.5,298 579.5,311.2441 579.5,311.2441 C579.5,311.2441 579.5,324.4883 574.5,324.4883 L445.5,324.4883 C440.5,324.4883 440.5,311.2441 440.5,311.2441 C440.5,311.2441 440.5,298 445.5,298 " fill="#FEFECE" filter="url(#f1vq33lmt020uq)" style="stroke:#A80036;stroke-width:1.5;"/><path d="M574.5,298 C569.5,298 569.5,311.2441 569.5,311.2441 C569.5,324.4883 574.5,324.4883 574.5,324.4883 " fill="none" style="stroke:#A80036;stroke-width:1.5;"/><text fill="#000000" font-family="sans-serif" font-size="14" lengthAdjust="spacing" textLength="119" x="445.5" y="316.5352">InstructionQueue</text><!--MD5=[e2b6e17d1d5c736178983dcf38a30b2f]
entity Cores--><polygon fill="#FEFECE" filter="url(#f1vq33lmt020uq)" points="227,298,237,288,307,288,307,324.4883,297,334.4883,227,334.4883,227,298" style="stroke:#000000;stroke-width:1.5;"/><line style="stroke:#000000;stroke-width:1.5;" x1="297" x2="307" y1="298" y2="288"/><line style="stroke:#000000;stroke-width:1.5;" x1="227" x2="297" y1="298" y2="298"/><line style="stroke:#000000;stroke-width:1.5;" x1="297" x2="297" y1="298" y2="334.4883"/><text fill="#000000" font-family="sans-serif" font-size="14" lengthAdjust="spacing" textLength="40" x="242" y="321.5352">Cores</text><!--MD5=[7c91cfc63a48c6aeebb32d40f0775152]
entity Trie--><rect fill="#FEFECE" filter="url(#f1vq33lmt020uq)" height="32.4883" style="stroke:#A80036;stroke-width:1.5;" width="43" x="27.5" y="297"/><rect fill="#FEFECE" height="32.4883" style="stroke:#A80036;stroke-width:1.5;" width="43" x="23.5" y="293"/><text fill="#000000" font-family="sans-serif" font-size="14" lengthAdjust="spacing" textLength="27" x="31.5" y="314.5352">Trie</text><!--MD5=[419b64cc10ec6f2e63be12fe127493a4]
entity BroadCaster--><path d="M139,157.5 L233,157.5 C238,157.5 238,170.7441 238,170.7441 C238,170.7441 238,183.9883 233,183.9883 L139,183.9883 C134,183.9883 134,170.7441 134,170.7441 C134,170.7441 134,157.5 139,157.5 " fill="#FEFECE" filter="url(#f1vq33lmt020uq)" style="stroke:#A80036;stroke-width:1.5;"/><path d="M233,157.5 C228,157.5 228,170.7441 228,170.7441 C228,183.9883 233,183.9883 233,183.9883 " fill="none" style="stroke:#A80036;stroke-width:1.5;"/><text fill="#000000" font-family="sans-serif" font-size="14" lengthAdjust="spacing" textLength="84" x="139" y="176.0352">BroadCaster</text><!--MD5=[0ba5ee7700168656dc1b457c6fe9fdac]
entity Client--><ellipse cx="633" cy="139.5" fill="#FEFECE" filter="url(#f1vq33lmt020uq)" rx="8" ry="8" style="stroke:#A80036;stroke-width:1.5;"/><path d="M633,147.5 L633,174.5 M620,155.5 L646,155.5 M633,174.5 L620,189.5 M633,174.5 L646,189.5 " fill="none" filter="url(#f1vq33lmt020uq)" style="stroke:#A80036;stroke-width:1.5;"/><text fill="#000000" font-family="sans-serif" font-size="14" lengthAdjust="spacing" textLength="40" x="613" y="208.5352">Client</text><!--MD5=[d78573849736651a0ead3cc4134235fd]
entity AnotherNyandis--><rect fill="#FEFECE" filter="url(#f1vq33lmt020uq)" height="46.4883" style="stroke:#000000;stroke-width:1.5;" width="150" x="111" y="7"/><path d="M161,7 L161,12 L154,19 L111,19 " fill="none" style="stroke:#000000;stroke-width:1.5;"/><text fill="#000000" font-family="sans-serif" font-size="14" lengthAdjust="spacing" textLength="110" x="126" y="40.5352">AnotherNyandis</text><!--MD5=[28960622eb3c9b8b18b3724407c8edd1]
reverse link Server to Client--><path d="M497.86,170.5 C535.22,170.5 585.25,170.5 612.76,170.5 " fill="none" id="Server-backto-Client" style="stroke:#A80036;stroke-width:1.0;"/><polygon fill="#A80036" points="492.44,170.5,501.44,174.5,497.44,170.5,501.44,166.5,492.44,170.5" style="stroke:#A80036;stroke-width:1.0;"/><text fill="#000000" font-family="sans-serif" font-size="13" lengthAdjust="spacing" textLength="84" x="510.5" y="164.0684">send Request</text><!--MD5=[12c569b13109240eee676e2f6cc7dd88]
link Server to Client--><path d="M477.86,181.45 C488.52,185.1 500.91,188.69 512.5,190.5 C547.63,195.98 557.88,198.58 592.5,190.5 C597.76,189.27 603.13,187.26 608.15,184.96 " fill="none" id="Server-to-Client" style="stroke:#A80036;stroke-width:1.0;"/><polygon fill="#A80036" points="612.67,182.8,602.8256,183.0966,608.1642,184.9674,606.2934,190.3059,612.67,182.8" style="stroke:#A80036;stroke-width:1.0;"/><text fill="#000000" font-family="sans-serif" font-size="13" lengthAdjust="spacing" textLength="78" x="513.5" y="187.0684">return result</text><!--MD5=[a4dad30004ddbd9b401ca20c711b1693]
link Server to InstructionQueue--><path d="M455.86,185.03 C466.86,210.41 490.54,265.08 502.61,292.94 " fill="none" id="Server-to-InstructionQueue" style="stroke:#A80036;stroke-width:1.0;"/><polygon fill="#A80036" points="504.72,297.81,504.8143,287.9616,502.7332,293.2217,497.4731,291.1405,504.72,297.81" style="stroke:#A80036;stroke-width:1.0;"/><text fill="#000000" font-family="sans-serif" font-size="13" lengthAdjust="spacing" textLength="126" x="488" y="254.5684">enqueue instruction</text><!--MD5=[dc0f3b00ed5e5c21f77ea240cf321576]
link Cores to InstructionQueue--><path d="M307.13,311 C341.84,311 392.96,311 435.2,311 " fill="none" id="Cores-to-InstructionQueue" style="stroke:#A80036;stroke-width:1.0;"/><polygon fill="#A80036" points="440.3,311,431.3,307,435.3,311,431.3,315,440.3,311" style="stroke:#A80036;stroke-width:1.0;"/><text fill="#000000" font-family="sans-serif" font-size="13" lengthAdjust="spacing" textLength="97" x="325.25" y="304.5684">pull instruction</text><!--MD5=[bc369b117ee17001189d46f18c787711]
reverse link Trie to Cores--><path d="M75.55,311 C114.15,311 183.16,311 226.93,311 " fill="none" id="Trie-backto-Cores" style="stroke:#A80036;stroke-width:1.0;"/><polygon fill="#A80036" points="70.54,311,79.54,315,75.54,311,79.54,307,70.54,311" style="stroke:#A80036;stroke-width:1.0;"/><text fill="#000000" font-family="sans-serif" font-size="13" lengthAdjust="spacing" textLength="120" x="88.75" y="304.5684">operate instruction</text><!--MD5=[6e4673231b7ae665e6671aeb5d71562a]
link Trie to Cores--><path d="M70.62,320.57 C81.95,324.66 95.84,328.96 108.75,331 C143.87,336.55 153.47,335.44 188.75,331 C199.61,329.63 211.12,327.24 221.87,324.58 " fill="none" id="Trie-to-Cores" style="stroke:#A80036;stroke-width:1.0;"/><polygon fill="#A80036" points="226.76,323.34,217.0527,321.6759,221.9135,324.5695,219.0199,329.4303,226.76,323.34" style="stroke:#A80036;stroke-width:1.0;"/><text fill="#000000" font-family="sans-serif" font-size="13" lengthAdjust="spacing" textLength="78" x="109.75" y="327.5684">return result</text><!--MD5=[fe3566cfa672cc1c90fbaae692f730fd]
reverse link Server to Cores--><path d="M429.24,187.21 C396.64,211.88 333.36,259.77 296.2,287.9 " fill="none" id="Server-backto-Cores" style="stroke:#A80036;stroke-width:1.0;"/><polygon fill="#A80036" points="433.44,184.04,423.854,186.3002,429.4589,187.0651,428.6941,192.67,433.44,184.04" style="stroke:#A80036;stroke-width:1.0;"/><text fill="#000000" font-family="sans-serif" font-size="13" lengthAdjust="spacing" textLength="78" x="354" y="254.5684">return result</text><!--MD5=[622483ba9cf11d4cb7678fb9309886e6]
reverse link BroadCaster to Cores--><path d="M180.52,188.47 C175.64,206.84 170.97,236.4 183,258 C192.52,275.08 210.21,287.26 226.92,295.52 " fill="none" id="BroadCaster-backto-Cores" style="stroke:#A80036;stroke-width:1.0;"/><polygon fill="#A80036" points="181.88,183.6,175.609,191.1944,180.5366,188.4162,183.3148,193.3438,181.88,183.6" style="stroke:#A80036;stroke-width:1.0;"/><text fill="#000000" font-family="sans-serif" font-size="13" lengthAdjust="spacing" textLength="104" x="184" y="254.5684">push instruction</text><!--MD5=[0cf5b22f07aba6738e6d7666fec305b9]
reverse link AnotherNyandis to BroadCaster--><path d="M186,58.28 C186,88.27 186,135.13 186,157.21 " fill="none" id="AnotherNyandis-backto-BroadCaster" style="stroke:#A80036;stroke-width:1.0;"/><polygon fill="#A80036" points="186,53.25,182,62.25,186,58.25,190,62.25,186,53.25" style="stroke:#A80036;stroke-width:1.0;"/><text fill="#000000" font-family="sans-serif" font-size="13" lengthAdjust="spacing" textLength="155" x="187" y="96.5684">broadcast result over H2</text><!--MD5=[6ca442513420cc7ff377084722e73f71]
@startuml Outline

actor Client

frame Nyandis {
    usecase Server
    queue InstructionQueue
    node Cores
    collections Trie

    queue BroadCaster
}

frame AnotherNyandis

Client -left-> Server: send Request
Server -down-> InstructionQueue: enqueue instruction
Cores -right-> InstructionQueue: pull instruction
Cores -left-> Trie: operate instruction
Trie -right-> Cores: return result
Cores -up-> Server: return result
Cores -up-> BroadCaster: push instruction
Server -right-> Client: return result
BroadCaster -up-> AnotherNyandis: broadcast result over H2

@enduml

PlantUML version 1.2022.0(Wed Jan 12 01:16:42 KST 2022)
(GPL source distribution)
Java Runtime: OpenJDK Runtime Environment
JVM: OpenJDK 64-Bit Server VM
Default Encoding: UTF-8
Language: ko
Country: KR
--></g></svg>