<?xml version="1.0" encoding="UTF-8" standalone="no"?><svg xmlns="http://www.w3.org/2000/svg" xmlns:xlink="http://www.w3.org/1999/xlink" contentScriptType="application/ecmascript" contentStyleType="text/css" height="254px" preserveAspectRatio="none" style="width:231px;height:254px;background:#FFFFFF;" version="1.1" viewBox="0 0 231 254" width="231px" zoomAndPan="magnify"><defs><filter height="300%" id="f1ueij4lwmqa1o" width="300%" x="-1" y="-1"><feGaussianBlur result="blurOut" stdDeviation="2.0"/><feColorMatrix in="blurOut" result="blurOut2" type="matrix" values="0 0 0 0 0 0 0 0 0 0 0 0 0 0 0 0 0 0 .4 0"/><feOffset dx="4.0" dy="4.0" in="blurOut2" result="blurOut3"/><feBlend in="SourceGraphic" in2="blurOut3" mode="normal"/></filter></defs><g><!--MD5=[0851f84a889f989e7bb0bebc385d0f09]
class Request--><rect codeLine="2" fill="#FEFECE" filter="url(#f1ueij4lwmqa1o)" height="86.8652" id="Request" style="stroke:#A80036;stroke-width:1.5;" width="84" x="10.5" y="7"/><ellipse cx="27.75" cy="23" fill="#ADD1B2" rx="11" ry="11" style="stroke:#A80036;stroke-width:1.0;"/><path d="M30.2231,29.1431 Q29.6421,29.4419 29.0029,29.5913 Q28.3638,29.7407 27.6582,29.7407 Q25.1514,29.7407 23.8315,28.0889 Q22.5117,26.437 22.5117,23.3159 Q22.5117,20.1865 23.8315,18.5347 Q25.1514,16.8828 27.6582,16.8828 Q28.3638,16.8828 29.0112,17.0322 Q29.6587,17.1816 30.2231,17.4805 L30.2231,20.2031 Q29.5923,19.6221 28.9988,19.3523 Q28.4053,19.0825 27.7744,19.0825 Q26.4297,19.0825 25.7449,20.1492 Q25.0601,21.2158 25.0601,23.3159 Q25.0601,25.4077 25.7449,26.4744 Q26.4297,27.541 27.7744,27.541 Q28.4053,27.541 28.9988,27.2712 Q29.5923,27.0015 30.2231,26.4204 Z " fill="#000000"/><text fill="#000000" font-family="sans-serif" font-size="12" lengthAdjust="spacing" textLength="47" x="42.25" y="27.5352">Request</text><line style="stroke:#A80036;stroke-width:1.5;" x1="11.5" x2="93.5" y1="39" y2="39"/><text fill="#000000" font-family="sans-serif" font-size="11" lengthAdjust="spacing" textLength="65" x="16.5" y="53.6348">byte[][] data</text><text fill="#000000" font-family="sans-serif" font-size="11" lengthAdjust="spacing" textLength="62" x="16.5" y="66.5898">uint8[] type</text><text fill="#000000" font-family="sans-serif" font-size="11" lengthAdjust="spacing" textLength="72" x="16.5" y="79.5449">uint8 method</text><line style="stroke:#A80036;stroke-width:1.5;" x1="11.5" x2="93.5" y1="85.8652" y2="85.8652"/><!--MD5=[62ba8ad8b61caf20139235a169a8c31d]
class Response--><rect codeLine="8" fill="#FEFECE" filter="url(#f1ueij4lwmqa1o)" height="86.8652" id="Response" style="stroke:#A80036;stroke-width:1.5;" width="88" x="129.5" y="7"/><ellipse cx="144.5" cy="23" fill="#ADD1B2" rx="11" ry="11" style="stroke:#A80036;stroke-width:1.0;"/><path d="M146.9731,29.1431 Q146.3921,29.4419 145.7529,29.5913 Q145.1138,29.7407 144.4082,29.7407 Q141.9014,29.7407 140.5815,28.0889 Q139.2617,26.437 139.2617,23.3159 Q139.2617,20.1865 140.5815,18.5347 Q141.9014,16.8828 144.4082,16.8828 Q145.1138,16.8828 145.7612,17.0322 Q146.4087,17.1816 146.9731,17.4805 L146.9731,20.2031 Q146.3423,19.6221 145.7488,19.3523 Q145.1553,19.0825 144.5244,19.0825 Q143.1797,19.0825 142.4949,20.1492 Q141.8101,21.2158 141.8101,23.3159 Q141.8101,25.4077 142.4949,26.4744 Q143.1797,27.541 144.5244,27.541 Q145.1553,27.541 145.7488,27.2712 Q146.3423,27.0015 146.9731,26.4204 Z " fill="#000000"/><text fill="#000000" font-family="sans-serif" font-size="12" lengthAdjust="spacing" textLength="56" x="158.5" y="27.5352">Response</text><line style="stroke:#A80036;stroke-width:1.5;" x1="130.5" x2="216.5" y1="39" y2="39"/><text fill="#000000" font-family="sans-serif" font-size="11" lengthAdjust="spacing" textLength="65" x="135.5" y="53.6348">byte[][] data</text><text fill="#000000" font-family="sans-serif" font-size="11" lengthAdjust="spacing" textLength="62" x="135.5" y="66.5898">uint8[] type</text><text fill="#000000" font-family="sans-serif" font-size="11" lengthAdjust="spacing" textLength="63" x="135.5" y="79.5449">string error</text><line style="stroke:#A80036;stroke-width:1.5;" x1="130.5" x2="216.5" y1="85.8652" y2="85.8652"/><!--MD5=[818ce9cd1eb68477d70117a0a20ac581]
class Instruction--><rect codeLine="14" fill="#FEFECE" filter="url(#f1ueij4lwmqa1o)" height="86.8652" id="Instruction" style="stroke:#A80036;stroke-width:1.5;" width="91" x="7" y="154"/><ellipse cx="22" cy="170" fill="#ADD1B2" rx="11" ry="11" style="stroke:#A80036;stroke-width:1.0;"/><path d="M24.4731,176.1431 Q23.8921,176.4419 23.2529,176.5913 Q22.6138,176.7407 21.9082,176.7407 Q19.4014,176.7407 18.0815,175.0889 Q16.7617,173.437 16.7617,170.3159 Q16.7617,167.1865 18.0815,165.5347 Q19.4014,163.8828 21.9082,163.8828 Q22.6138,163.8828 23.2612,164.0322 Q23.9087,164.1816 24.4731,164.4805 L24.4731,167.2031 Q23.8423,166.6221 23.2488,166.3523 Q22.6553,166.0825 22.0244,166.0825 Q20.6797,166.0825 19.9949,167.1492 Q19.3101,168.2158 19.3101,170.3159 Q19.3101,172.4077 19.9949,173.4744 Q20.6797,174.541 22.0244,174.541 Q22.6553,174.541 23.2488,174.2712 Q23.8423,174.0015 24.4731,173.4204 Z " fill="#000000"/><text fill="#000000" font-family="sans-serif" font-size="12" lengthAdjust="spacing" textLength="59" x="36" y="174.5352">Instruction</text><line style="stroke:#A80036;stroke-width:1.5;" x1="8" x2="97" y1="186" y2="186"/><text fill="#000000" font-family="sans-serif" font-size="11" lengthAdjust="spacing" textLength="63" x="13" y="200.6348">byte[] client</text><text fill="#000000" font-family="sans-serif" font-size="11" lengthAdjust="spacing" textLength="53" x="13" y="213.5898">any[] data</text><text fill="#000000" font-family="sans-serif" font-size="11" lengthAdjust="spacing" textLength="72" x="13" y="226.5449">uint8 method</text><line style="stroke:#A80036;stroke-width:1.5;" x1="8" x2="97" y1="232.8652" y2="232.8652"/><!--MD5=[1da3a68cd5e2f55ef2ce8fce1bc1b30a]
link Request to Response--><!--MD5=[a802912d1aa2fa9596f1ca134c57c7fb]
link Request to Instruction--><!--MD5=[7523fe1a90dc4c9c01a5a3dc6f9160fe]
@startuml Datas

class Request {
    byte[][] data
    uint8[] type
    uint8 method
}

class Response {
    byte[][] data
    uint8[] type
    string error
}

class Instruction {
    byte[] client
    any[] data
    uint8 method
}

@enduml

PlantUML version 1.2022.0(Wed Jan 12 01:16:42 KST 2022)
(GPL source distribution)
Java Runtime: OpenJDK Runtime Environment
JVM: OpenJDK 64-Bit Server VM
Default Encoding: UTF-8
Language: ko
Country: KR
--></g></svg>